<svg xmlns="http://www.w3.org/2000/svg" width="23.375" height="40" viewBox="0 0 11.688 20">
  <defs>
    <style>
      .cls-1 {
        fill: #303030;
        fill-rule: evenodd;
      }
    </style>
  </defs>
  <path id="fa-angle-left" class="cls-1" d="M76.831,451.736a0.654,0.654,0,0,0-.2-0.462l-1-1a0.633,0.633,0,0,0-.922,0l-9.341,9.341a0.632,0.632,0,0,0,0,.923l9.341,9.339a0.629,0.629,0,0,0,.922,0l1-1a0.631,0.631,0,0,0,0-.922l-7.877-7.877,7.877-7.877A0.7,0.7,0,0,0,76.831,451.736Z" transform="translate(-65.156 -450.063)"/>
</svg>
